M48
; DRILL file KiCad 10.0.3 date 2026-06-01T12:07:49
; FORMAT={-:-/ absolute / metric / decimal}
; #@! TF.CreationDate,2026-06-01T12:07:49+02:00
; #@! TF.GenerationSoftware,Kicad,Pcbnew,10.0.3
; #@! TF.FileFunction,Plated,1,4,PTH
FMAT,2
METRIC
; #@! TA.AperFunction,Plated,PTH,ViaDrill
T1C0.250
; #@! TA.AperFunction,Plated,PTH,ComponentDrill
T2C0.250
; #@! TA.AperFunction,Plated,PTH,ViaDrill
T3C0.300
; #@! TA.AperFunction,Plated,PTH,ComponentDrill
T4C0.600
; #@! TA.AperFunction,Plated,PTH,ComponentDrill
T5C1.000
; #@! TA.AperFunction,Plated,PTH,ComponentDrill
T6C1.400
%
G90
G05
T1
X96.5Y-101.6
X97.05Y-105.25
X97.05Y-107.35
X99.05Y-112.05
X99.25Y-101.2
X101.6Y-111.9
X101.65Y-112.55
X103.65Y-112.55
X107.65Y-101.85
X109.75Y-124.05
X110.5Y-115.4
X111.0Y-115.4
X115.75Y-107.6
X115.8Y-122.9
X116.35Y-120.9
X116.65Y-106.3
X116.75Y-122.95
X116.95Y-119.25
X118.05Y-107.1
X124.3Y-116.2
X124.3Y-117.3
X125.4Y-115.1
X125.4Y-116.2
X125.4Y-117.3
X125.4Y-118.4
X126.5Y-115.1
X126.5Y-116.2
X126.5Y-117.3
X126.5Y-118.4
X127.6Y-116.2
X127.6Y-117.3
X128.75Y-104.2
X128.85Y-105.2
X129.1Y-101.25
X129.1Y-101.95
X129.15Y-98.4
X129.2Y-99.3
X129.2Y-100.25
X129.75Y-104.3
X129.75Y-105.65
X130.3Y-104.0
X130.45Y-116.6
X130.8Y-100.2
X130.8Y-105.65
X130.85Y-99.7
X130.85Y-101.7
X131.15Y-111.5
X131.3Y-100.2
X131.35Y-99.7
X131.375Y-104.095
X131.45Y-103.5
X131.7Y-104.6
X131.809Y-118.709
X131.95Y-100.6
X132.55Y-99.7
X132.6Y-100.2
X132.7Y-104.0
X132.75Y-105.8
X133.05Y-99.7
X133.05Y-101.05
X133.1Y-100.2
X134.05Y-103.8
X134.45Y-104.5
X134.55Y-111.8
X134.65Y-99.55
X134.65Y-100.95
X134.7Y-98.65
X134.75Y-100.3
X134.8Y-105.4
X136.15Y-100.95
X137.0Y-101.7
X141.9Y-112.55
X142.4Y-114.3
X143.9Y-110.3
X145.4Y-111.0
X146.0Y-111.0
X146.9Y-110.25
X147.2Y-112.6
T2
X103.7Y-95.78
X103.7Y-96.32
X107.22Y-99.58
X107.66Y-100.58
X107.67Y-98.69
X108.11Y-99.58
X110.135Y-117.3
X110.835Y-117.3
X113.09Y-99.6
X113.53Y-100.49
X113.54Y-98.6
X113.98Y-99.6
X144.45Y-102.08
X144.45Y-102.62
T3
X94.85Y-118.8
X94.85Y-119.8
X96.2Y-92.4
X96.2Y-93.4
X97.1Y-118.8
X97.1Y-119.8
X98.45Y-92.4
X98.45Y-93.4
X101.25Y-96.2
X101.4Y-102.65
X101.4Y-109.6
X101.4Y-116.0
X101.55Y-95.1
X101.55Y-97.15
X101.55Y-101.8
X101.8Y-95.7
X102.1Y-102.65
X102.1Y-103.3
X102.1Y-108.95
X102.1Y-109.6
X102.1Y-116.0
X102.1Y-116.65
X102.25Y-98.0
X102.25Y-99.0
X102.25Y-100.3
X102.35Y-96.25
X102.45Y-95.1
X102.75Y-101.8
X102.8Y-102.65
X102.8Y-103.3
X102.8Y-108.95
X102.8Y-109.6
X102.8Y-116.0
X102.8Y-116.65
X103.025Y-91.375
X103.025Y-93.575
X103.05Y-90.65
X103.05Y-92.85
X103.95Y-99.0
X104.0Y-97.95
X104.0Y-100.3
X104.2Y-101.8
X105.33Y-115.1
X105.33Y-120.0
X105.4Y-100.3
X105.45Y-95.2
X105.45Y-98.05
X105.45Y-99.05
X105.7Y-101.8
X106.18Y-115.1
X106.23Y-120.0
X106.4Y-104.882
X106.4Y-105.617
X106.5Y-97.9
X107.2Y-114.6
X107.35Y-117.85
X107.75Y-97.15
X107.925Y-121.8
X107.95Y-121.075
X108.15Y-116.1
X108.3Y-114.3
X109.1Y-97.7
X109.2Y-101.4
X109.25Y-119.9
X110.2Y-99.35
X110.2Y-100.15
X111.05Y-98.75
X111.05Y-99.6
X111.85Y-120.1
X112.775Y-121.05
X112.775Y-121.825
X112.9Y-120.05
X113.15Y-101.45
X113.25Y-97.75
X114.55Y-97.75
X114.65Y-101.45
X114.8Y-120.9
X115.15Y-109.95
X115.55Y-116.95
X115.7Y-98.55
X115.7Y-99.45
X115.7Y-100.4
X118.05Y-98.6
X118.1Y-100.7
X118.15Y-101.8
X118.85Y-101.8
X118.95Y-98.6
X118.95Y-100.7
X120.1Y-98.6
X120.2Y-101.8
X120.35Y-100.75
X120.9Y-98.6
X121.0Y-101.8
X121.1Y-100.75
X122.35Y-100.7
X122.4Y-101.85
X122.55Y-95.25
X122.75Y-104.3
X123.15Y-101.85
X123.35Y-100.75
X123.5Y-95.2
X124.65Y-101.85
X124.7Y-100.75
X124.85Y-95.25
X125.5Y-101.8
X125.6Y-100.75
X125.8Y-95.25
X126.55Y-99.45
X126.55Y-100.5
X126.65Y-101.75
X127.05Y-95.25
X127.5Y-99.4
X127.5Y-101.7
X127.6Y-100.85
X127.9Y-95.2
X129.55Y-92.75
X129.55Y-93.4
X129.55Y-94.05
X131.25Y-96.85
X131.4Y-101.05
X131.9Y-101.6
X131.95Y-96.85
X132.375Y-101.05
X132.65Y-96.85
X133.45Y-106.9
X133.7Y-122.9
X134.35Y-92.75
X134.35Y-93.4
X134.35Y-94.05
X134.4Y-122.9
X135.2Y-110.05
X135.85Y-95.2
X135.95Y-110.05
X136.15Y-99.5
X136.15Y-107.1
X136.5Y-102.8
X136.65Y-110.05
X136.7Y-95.2
X136.85Y-99.1
X136.85Y-100.05
X137.1Y-123.0
X137.2Y-122.0
X137.3Y-114.9
X137.3Y-118.3
X137.45Y-112.85
X137.9Y-101.85
X138.05Y-95.2
X138.05Y-106.15
X138.75Y-101.85
X138.95Y-95.25
X139.4Y-118.75
X139.4Y-123.55
X140.1Y-101.85
X140.125Y-123.575
X140.175Y-118.75
X140.3Y-95.15
X141.05Y-101.85
X141.2Y-95.15
X141.925Y-123.625
X142.5Y-95.2
X142.65Y-123.65
X142.75Y-116.75
X142.8Y-117.85
X142.95Y-102.55
X142.95Y-103.35
X142.975Y-92.325
X143.0Y-91.6
X143.3Y-95.2
X143.7Y-116.75
X143.75Y-105.9
X143.75Y-106.85
X143.75Y-108.25
X143.75Y-109.15
X143.75Y-117.85
X143.95Y-114.8
X144.2Y-113.25
X144.2Y-121.85
X144.3Y-111.45
X144.65Y-95.15
X144.75Y-113.6
X144.925Y-121.875
X145.05Y-114.85
X145.1Y-116.75
X145.15Y-117.8
X145.65Y-95.15
X145.65Y-96.2
X145.7Y-98.2
X145.9Y-114.7
X145.9Y-116.75
X146.0Y-117.8
X146.65Y-96.35
X146.65Y-97.1
X146.65Y-97.85
X146.825Y-88.325
X146.9Y-105.85
X146.9Y-106.9
X146.9Y-108.1
X146.9Y-109.1
X147.05Y-117.8
X147.05Y-118.55
X147.05Y-119.3
X147.55Y-88.35
X147.65Y-120.45
X147.85Y-117.8
X147.85Y-118.55
X147.9Y-119.3
X148.05Y-117.1
X148.9Y-96.85
X148.95Y-98.4
X149.65Y-95.75
X150.45Y-99.15
X151.5Y-95.7
X152.05Y-99.1
X152.3Y-96.5
X152.45Y-97.85
T5
X97.44Y-122.25
X99.98Y-122.25
X102.52Y-122.25
X105.06Y-122.25
X106.76Y-108.485
X106.76Y-111.025
X109.3Y-108.485
X109.3Y-111.025
X111.84Y-108.485
X111.84Y-111.025
T6
X150.775Y-93.355
X150.775Y-97.555
X150.775Y-101.755
T4
G00X95.88Y-95.13
M15
G01X95.08Y-95.13
M16
G05
G00X95.88Y-103.77
M15
G01X95.08Y-103.77
M16
G05
G00X95.88Y-108.48
M15
G01X95.08Y-108.48
M16
G05
G00X95.88Y-117.12
M15
G01X95.08Y-117.12
M16
G05
G00X100.2Y-95.13
M15
G01X99.1Y-95.13
M16
G05
G00X100.2Y-103.77
M15
G01X99.1Y-103.77
M16
G05
G00X100.2Y-108.48
M15
G01X99.1Y-108.48
M16
G05
G00X100.2Y-117.12
M15
G01X99.1Y-117.12
M16
G05
M30
