%TF.GenerationSoftware,KiCad,Pcbnew,10.0.3*%
%TF.CreationDate,2026-06-01T12:05:19+02:00*%
%TF.ProjectId,ESP_Smart_IoT_Power_Bank,4553505f-536d-4617-9274-5f496f545f50,rev?*%
%TF.SameCoordinates,Original*%
%TF.FileFunction,Soldermask,Bot*%
%TF.FilePolarity,Negative*%
%FSLAX46Y46*%
G04 Gerber Fmt 4.6, Leading zero omitted, Abs format (unit mm)*
G04 Created by KiCad (PCBNEW 10.0.3) date 2026-06-01 12:05:19*
%MOMM*%
%LPD*%
G01*
G04 APERTURE LIST*
G04 APERTURE END LIST*
G36*
X105929134Y-121353806D02*
G01*
X105945355Y-121364645D01*
X105956194Y-121380866D01*
X105960000Y-121400000D01*
X105960000Y-123100000D01*
X105956194Y-123119134D01*
X105945355Y-123135355D01*
X105929134Y-123146194D01*
X105910000Y-123150000D01*
X104210000Y-123150000D01*
X104190866Y-123146194D01*
X104174645Y-123135355D01*
X104163806Y-123119134D01*
X104160000Y-123100000D01*
X104160000Y-121400000D01*
X104163806Y-121380866D01*
X104174645Y-121364645D01*
X104190866Y-121353806D01*
X104210000Y-121350000D01*
X105910000Y-121350000D01*
X105929134Y-121353806D01*
G37*
G36*
X97701256Y-121388754D02*
G01*
X97864257Y-121456271D01*
X98010954Y-121554291D01*
X98135709Y-121679046D01*
X98233729Y-121825743D01*
X98301246Y-121988744D01*
X98335666Y-122161785D01*
X98335666Y-122338215D01*
X98301246Y-122511256D01*
X98233729Y-122674257D01*
X98135709Y-122820954D01*
X98010954Y-122945709D01*
X97864257Y-123043729D01*
X97701256Y-123111246D01*
X97528215Y-123145666D01*
X97351785Y-123145666D01*
X97178744Y-123111246D01*
X97015743Y-123043729D01*
X96869046Y-122945709D01*
X96744291Y-122820954D01*
X96646271Y-122674257D01*
X96578754Y-122511256D01*
X96544334Y-122338215D01*
X96544334Y-122161785D01*
X96578754Y-121988744D01*
X96646271Y-121825743D01*
X96744291Y-121679046D01*
X96869046Y-121554291D01*
X97015743Y-121456271D01*
X97178744Y-121388754D01*
X97351785Y-121354334D01*
X97528215Y-121354334D01*
X97701256Y-121388754D01*
G37*
G36*
X100241256Y-121388754D02*
G01*
X100404257Y-121456271D01*
X100550954Y-121554291D01*
X100675709Y-121679046D01*
X100773729Y-121825743D01*
X100841246Y-121988744D01*
X100875666Y-122161785D01*
X100875666Y-122338215D01*
X100841246Y-122511256D01*
X100773729Y-122674257D01*
X100675709Y-122820954D01*
X100550954Y-122945709D01*
X100404257Y-123043729D01*
X100241256Y-123111246D01*
X100068215Y-123145666D01*
X99891785Y-123145666D01*
X99718744Y-123111246D01*
X99555743Y-123043729D01*
X99409046Y-122945709D01*
X99284291Y-122820954D01*
X99186271Y-122674257D01*
X99118754Y-122511256D01*
X99084334Y-122338215D01*
X99084334Y-122161785D01*
X99118754Y-121988744D01*
X99186271Y-121825743D01*
X99284291Y-121679046D01*
X99409046Y-121554291D01*
X99555743Y-121456271D01*
X99718744Y-121388754D01*
X99891785Y-121354334D01*
X100068215Y-121354334D01*
X100241256Y-121388754D01*
G37*
G36*
X102781256Y-121388754D02*
G01*
X102944257Y-121456271D01*
X103090954Y-121554291D01*
X103215709Y-121679046D01*
X103313729Y-121825743D01*
X103381246Y-121988744D01*
X103415666Y-122161785D01*
X103415666Y-122338215D01*
X103381246Y-122511256D01*
X103313729Y-122674257D01*
X103215709Y-122820954D01*
X103090954Y-122945709D01*
X102944257Y-123043729D01*
X102781256Y-123111246D01*
X102608215Y-123145666D01*
X102431785Y-123145666D01*
X102258744Y-123111246D01*
X102095743Y-123043729D01*
X101949046Y-122945709D01*
X101824291Y-122820954D01*
X101726271Y-122674257D01*
X101658754Y-122511256D01*
X101624334Y-122338215D01*
X101624334Y-122161785D01*
X101658754Y-121988744D01*
X101726271Y-121825743D01*
X101824291Y-121679046D01*
X101949046Y-121554291D01*
X102095743Y-121456271D01*
X102258744Y-121388754D01*
X102431785Y-121354334D01*
X102608215Y-121354334D01*
X102781256Y-121388754D01*
G37*
G36*
X95951789Y-116574705D02*
G01*
X96090476Y-116611866D01*
X96214819Y-116683656D01*
X96316344Y-116785181D01*
X96388134Y-116909524D01*
X96425295Y-117048211D01*
X96425295Y-117191789D01*
X96388134Y-117330476D01*
X96316344Y-117454819D01*
X96214819Y-117556344D01*
X96090476Y-117628134D01*
X95951789Y-117665295D01*
X95880000Y-117670000D01*
X95878449Y-117670000D01*
X95081551Y-117670000D01*
X95080000Y-117670000D01*
X95008211Y-117665295D01*
X94869524Y-117628134D01*
X94745181Y-117556344D01*
X94643656Y-117454819D01*
X94571866Y-117330476D01*
X94534705Y-117191789D01*
X94534705Y-117048211D01*
X94571866Y-116909524D01*
X94643656Y-116785181D01*
X94745181Y-116683656D01*
X94869524Y-116611866D01*
X95008211Y-116574705D01*
X95080000Y-116570000D01*
X95880000Y-116570000D01*
X95951789Y-116574705D01*
G37*
G36*
X100271789Y-116574705D02*
G01*
X100410476Y-116611866D01*
X100534819Y-116683656D01*
X100636344Y-116785181D01*
X100708134Y-116909524D01*
X100745295Y-117048211D01*
X100745295Y-117191789D01*
X100708134Y-117330476D01*
X100636344Y-117454819D01*
X100534819Y-117556344D01*
X100410476Y-117628134D01*
X100271789Y-117665295D01*
X100200000Y-117670000D01*
X100198449Y-117670000D01*
X99101551Y-117670000D01*
X99100000Y-117670000D01*
X99028211Y-117665295D01*
X98889524Y-117628134D01*
X98765181Y-117556344D01*
X98663656Y-117454819D01*
X98591866Y-117330476D01*
X98554705Y-117191789D01*
X98554705Y-117048211D01*
X98591866Y-116909524D01*
X98663656Y-116785181D01*
X98765181Y-116683656D01*
X98889524Y-116611866D01*
X99028211Y-116574705D01*
X99100000Y-116570000D01*
X100200000Y-116570000D01*
X100271789Y-116574705D01*
G37*
G36*
X107629134Y-110128806D02*
G01*
X107645355Y-110139645D01*
X107656194Y-110155866D01*
X107660000Y-110175000D01*
X107660000Y-111875000D01*
X107656194Y-111894134D01*
X107645355Y-111910355D01*
X107629134Y-111921194D01*
X107610000Y-111925000D01*
X105910000Y-111925000D01*
X105890866Y-111921194D01*
X105874645Y-111910355D01*
X105863806Y-111894134D01*
X105860000Y-111875000D01*
X105860000Y-110175000D01*
X105863806Y-110155866D01*
X105874645Y-110139645D01*
X105890866Y-110128806D01*
X105910000Y-110125000D01*
X107610000Y-110125000D01*
X107629134Y-110128806D01*
G37*
G36*
X109561256Y-110163754D02*
G01*
X109724257Y-110231271D01*
X109870954Y-110329291D01*
X109995709Y-110454046D01*
X110093729Y-110600743D01*
X110161246Y-110763744D01*
X110195666Y-110936785D01*
X110195666Y-111113215D01*
X110161246Y-111286256D01*
X110093729Y-111449257D01*
X109995709Y-111595954D01*
X109870954Y-111720709D01*
X109724257Y-111818729D01*
X109561256Y-111886246D01*
X109388215Y-111920666D01*
X109211785Y-111920666D01*
X109038744Y-111886246D01*
X108875743Y-111818729D01*
X108729046Y-111720709D01*
X108604291Y-111595954D01*
X108506271Y-111449257D01*
X108438754Y-111286256D01*
X108404334Y-111113215D01*
X108404334Y-110936785D01*
X108438754Y-110763744D01*
X108506271Y-110600743D01*
X108604291Y-110454046D01*
X108729046Y-110329291D01*
X108875743Y-110231271D01*
X109038744Y-110163754D01*
X109211785Y-110129334D01*
X109388215Y-110129334D01*
X109561256Y-110163754D01*
G37*
G36*
X112101256Y-110163754D02*
G01*
X112264257Y-110231271D01*
X112410954Y-110329291D01*
X112535709Y-110454046D01*
X112633729Y-110600743D01*
X112701246Y-110763744D01*
X112735666Y-110936785D01*
X112735666Y-111113215D01*
X112701246Y-111286256D01*
X112633729Y-111449257D01*
X112535709Y-111595954D01*
X112410954Y-111720709D01*
X112264257Y-111818729D01*
X112101256Y-111886246D01*
X111928215Y-111920666D01*
X111751785Y-111920666D01*
X111578744Y-111886246D01*
X111415743Y-111818729D01*
X111269046Y-111720709D01*
X111144291Y-111595954D01*
X111046271Y-111449257D01*
X110978754Y-111286256D01*
X110944334Y-111113215D01*
X110944334Y-110936785D01*
X110978754Y-110763744D01*
X111046271Y-110600743D01*
X111144291Y-110454046D01*
X111269046Y-110329291D01*
X111415743Y-110231271D01*
X111578744Y-110163754D01*
X111751785Y-110129334D01*
X111928215Y-110129334D01*
X112101256Y-110163754D01*
G37*
G36*
X107021256Y-107623754D02*
G01*
X107184257Y-107691271D01*
X107330954Y-107789291D01*
X107455709Y-107914046D01*
X107553729Y-108060743D01*
X107621246Y-108223744D01*
X107655666Y-108396785D01*
X107655666Y-108573215D01*
X107621246Y-108746256D01*
X107553729Y-108909257D01*
X107455709Y-109055954D01*
X107330954Y-109180709D01*
X107184257Y-109278729D01*
X107021256Y-109346246D01*
X106848215Y-109380666D01*
X106671785Y-109380666D01*
X106498744Y-109346246D01*
X106335743Y-109278729D01*
X106189046Y-109180709D01*
X106064291Y-109055954D01*
X105966271Y-108909257D01*
X105898754Y-108746256D01*
X105864334Y-108573215D01*
X105864334Y-108396785D01*
X105898754Y-108223744D01*
X105966271Y-108060743D01*
X106064291Y-107914046D01*
X106189046Y-107789291D01*
X106335743Y-107691271D01*
X106498744Y-107623754D01*
X106671785Y-107589334D01*
X106848215Y-107589334D01*
X107021256Y-107623754D01*
G37*
G36*
X109561256Y-107623754D02*
G01*
X109724257Y-107691271D01*
X109870954Y-107789291D01*
X109995709Y-107914046D01*
X110093729Y-108060743D01*
X110161246Y-108223744D01*
X110195666Y-108396785D01*
X110195666Y-108573215D01*
X110161246Y-108746256D01*
X110093729Y-108909257D01*
X109995709Y-109055954D01*
X109870954Y-109180709D01*
X109724257Y-109278729D01*
X109561256Y-109346246D01*
X109388215Y-109380666D01*
X109211785Y-109380666D01*
X109038744Y-109346246D01*
X108875743Y-109278729D01*
X108729046Y-109180709D01*
X108604291Y-109055954D01*
X108506271Y-108909257D01*
X108438754Y-108746256D01*
X108404334Y-108573215D01*
X108404334Y-108396785D01*
X108438754Y-108223744D01*
X108506271Y-108060743D01*
X108604291Y-107914046D01*
X108729046Y-107789291D01*
X108875743Y-107691271D01*
X109038744Y-107623754D01*
X109211785Y-107589334D01*
X109388215Y-107589334D01*
X109561256Y-107623754D01*
G37*
G36*
X112101256Y-107623754D02*
G01*
X112264257Y-107691271D01*
X112410954Y-107789291D01*
X112535709Y-107914046D01*
X112633729Y-108060743D01*
X112701246Y-108223744D01*
X112735666Y-108396785D01*
X112735666Y-108573215D01*
X112701246Y-108746256D01*
X112633729Y-108909257D01*
X112535709Y-109055954D01*
X112410954Y-109180709D01*
X112264257Y-109278729D01*
X112101256Y-109346246D01*
X111928215Y-109380666D01*
X111751785Y-109380666D01*
X111578744Y-109346246D01*
X111415743Y-109278729D01*
X111269046Y-109180709D01*
X111144291Y-109055954D01*
X111046271Y-108909257D01*
X110978754Y-108746256D01*
X110944334Y-108573215D01*
X110944334Y-108396785D01*
X110978754Y-108223744D01*
X111046271Y-108060743D01*
X111144291Y-107914046D01*
X111269046Y-107789291D01*
X111415743Y-107691271D01*
X111578744Y-107623754D01*
X111751785Y-107589334D01*
X111928215Y-107589334D01*
X112101256Y-107623754D01*
G37*
G36*
X95951789Y-107934705D02*
G01*
X96090476Y-107971866D01*
X96214819Y-108043656D01*
X96316344Y-108145181D01*
X96388134Y-108269524D01*
X96425295Y-108408211D01*
X96425295Y-108551789D01*
X96388134Y-108690476D01*
X96316344Y-108814819D01*
X96214819Y-108916344D01*
X96090476Y-108988134D01*
X95951789Y-109025295D01*
X95880000Y-109030000D01*
X95878449Y-109030000D01*
X95081551Y-109030000D01*
X95080000Y-109030000D01*
X95008211Y-109025295D01*
X94869524Y-108988134D01*
X94745181Y-108916344D01*
X94643656Y-108814819D01*
X94571866Y-108690476D01*
X94534705Y-108551789D01*
X94534705Y-108408211D01*
X94571866Y-108269524D01*
X94643656Y-108145181D01*
X94745181Y-108043656D01*
X94869524Y-107971866D01*
X95008211Y-107934705D01*
X95080000Y-107930000D01*
X95880000Y-107930000D01*
X95951789Y-107934705D01*
G37*
G36*
X100271789Y-107934705D02*
G01*
X100410476Y-107971866D01*
X100534819Y-108043656D01*
X100636344Y-108145181D01*
X100708134Y-108269524D01*
X100745295Y-108408211D01*
X100745295Y-108551789D01*
X100708134Y-108690476D01*
X100636344Y-108814819D01*
X100534819Y-108916344D01*
X100410476Y-108988134D01*
X100271789Y-109025295D01*
X100200000Y-109030000D01*
X100198449Y-109030000D01*
X99101551Y-109030000D01*
X99100000Y-109030000D01*
X99028211Y-109025295D01*
X98889524Y-108988134D01*
X98765181Y-108916344D01*
X98663656Y-108814819D01*
X98591866Y-108690476D01*
X98554705Y-108551789D01*
X98554705Y-108408211D01*
X98591866Y-108269524D01*
X98663656Y-108145181D01*
X98765181Y-108043656D01*
X98889524Y-107971866D01*
X99028211Y-107934705D01*
X99100000Y-107930000D01*
X100200000Y-107930000D01*
X100271789Y-107934705D01*
G37*
G36*
X95951789Y-103224705D02*
G01*
X96090476Y-103261866D01*
X96214819Y-103333656D01*
X96316344Y-103435181D01*
X96388134Y-103559524D01*
X96425295Y-103698211D01*
X96425295Y-103841789D01*
X96388134Y-103980476D01*
X96316344Y-104104819D01*
X96214819Y-104206344D01*
X96090476Y-104278134D01*
X95951789Y-104315295D01*
X95880000Y-104320000D01*
X95878449Y-104320000D01*
X95081551Y-104320000D01*
X95080000Y-104320000D01*
X95008211Y-104315295D01*
X94869524Y-104278134D01*
X94745181Y-104206344D01*
X94643656Y-104104819D01*
X94571866Y-103980476D01*
X94534705Y-103841789D01*
X94534705Y-103698211D01*
X94571866Y-103559524D01*
X94643656Y-103435181D01*
X94745181Y-103333656D01*
X94869524Y-103261866D01*
X95008211Y-103224705D01*
X95080000Y-103220000D01*
X95880000Y-103220000D01*
X95951789Y-103224705D01*
G37*
G36*
X100271789Y-103224705D02*
G01*
X100410476Y-103261866D01*
X100534819Y-103333656D01*
X100636344Y-103435181D01*
X100708134Y-103559524D01*
X100745295Y-103698211D01*
X100745295Y-103841789D01*
X100708134Y-103980476D01*
X100636344Y-104104819D01*
X100534819Y-104206344D01*
X100410476Y-104278134D01*
X100271789Y-104315295D01*
X100200000Y-104320000D01*
X100198449Y-104320000D01*
X99101551Y-104320000D01*
X99100000Y-104320000D01*
X99028211Y-104315295D01*
X98889524Y-104278134D01*
X98765181Y-104206344D01*
X98663656Y-104104819D01*
X98591866Y-103980476D01*
X98554705Y-103841789D01*
X98554705Y-103698211D01*
X98591866Y-103559524D01*
X98663656Y-103435181D01*
X98765181Y-103333656D01*
X98889524Y-103261866D01*
X99028211Y-103224705D01*
X99100000Y-103220000D01*
X100200000Y-103220000D01*
X100271789Y-103224705D01*
G37*
G36*
X151844134Y-100658806D02*
G01*
X151860355Y-100669645D01*
X151871194Y-100685866D01*
X151875000Y-100705000D01*
X151875000Y-102805000D01*
X151871194Y-102824134D01*
X151860355Y-102840355D01*
X151844134Y-102851194D01*
X151825000Y-102855000D01*
X149725000Y-102855000D01*
X149705866Y-102851194D01*
X149689645Y-102840355D01*
X149678806Y-102824134D01*
X149675000Y-102805000D01*
X149675000Y-100705000D01*
X149678806Y-100685866D01*
X149689645Y-100669645D01*
X149705866Y-100658806D01*
X149725000Y-100655000D01*
X151825000Y-100655000D01*
X151844134Y-100658806D01*
G37*
G36*
X130241970Y-100013321D02*
G01*
X130298744Y-100051256D01*
X130336679Y-100108030D01*
X130350000Y-100175000D01*
X130350000Y-100425000D01*
X130336679Y-100491970D01*
X130298744Y-100548744D01*
X130241970Y-100586679D01*
X130175000Y-100600000D01*
X129925000Y-100600000D01*
X129858030Y-100586679D01*
X129801256Y-100548744D01*
X129763321Y-100491970D01*
X129750000Y-100425000D01*
X129750000Y-100175000D01*
X129763321Y-100108030D01*
X129801256Y-100051256D01*
X129858030Y-100013321D01*
X129925000Y-100000000D01*
X130175000Y-100000000D01*
X130241970Y-100013321D01*
G37*
G36*
X134041970Y-100013321D02*
G01*
X134098744Y-100051256D01*
X134136679Y-100108030D01*
X134150000Y-100175000D01*
X134150000Y-100425000D01*
X134136679Y-100491970D01*
X134098744Y-100548744D01*
X134041970Y-100586679D01*
X133975000Y-100600000D01*
X133725000Y-100600000D01*
X133658030Y-100586679D01*
X133601256Y-100548744D01*
X133563321Y-100491970D01*
X133550000Y-100425000D01*
X133550000Y-100175000D01*
X133563321Y-100108030D01*
X133601256Y-100051256D01*
X133658030Y-100013321D01*
X133725000Y-100000000D01*
X133975000Y-100000000D01*
X134041970Y-100013321D01*
G37*
G36*
X130241970Y-99013321D02*
G01*
X130298744Y-99051256D01*
X130336679Y-99108030D01*
X130350000Y-99175000D01*
X130350000Y-99425000D01*
X130336679Y-99491970D01*
X130298744Y-99548744D01*
X130241970Y-99586679D01*
X130175000Y-99600000D01*
X129925000Y-99600000D01*
X129858030Y-99586679D01*
X129801256Y-99548744D01*
X129763321Y-99491970D01*
X129750000Y-99425000D01*
X129750000Y-99175000D01*
X129763321Y-99108030D01*
X129801256Y-99051256D01*
X129858030Y-99013321D01*
X129925000Y-99000000D01*
X130175000Y-99000000D01*
X130241970Y-99013321D01*
G37*
G36*
X134041970Y-99013321D02*
G01*
X134098744Y-99051256D01*
X134136679Y-99108030D01*
X134150000Y-99175000D01*
X134150000Y-99425000D01*
X134136679Y-99491970D01*
X134098744Y-99548744D01*
X134041970Y-99586679D01*
X133975000Y-99600000D01*
X133725000Y-99600000D01*
X133658030Y-99586679D01*
X133601256Y-99548744D01*
X133563321Y-99491970D01*
X133550000Y-99425000D01*
X133550000Y-99175000D01*
X133563321Y-99108030D01*
X133601256Y-99051256D01*
X133658030Y-99013321D01*
X133725000Y-99000000D01*
X133975000Y-99000000D01*
X134041970Y-99013321D01*
G37*
G36*
X151031790Y-96485393D02*
G01*
X151195952Y-96538733D01*
X151349748Y-96617096D01*
X151489393Y-96718553D01*
X151611447Y-96840607D01*
X151712904Y-96980252D01*
X151791267Y-97134048D01*
X151844607Y-97298210D01*
X151871609Y-97468695D01*
X151871609Y-97641305D01*
X151844607Y-97811790D01*
X151791267Y-97975952D01*
X151712904Y-98129748D01*
X151611447Y-98269393D01*
X151489393Y-98391447D01*
X151349748Y-98492904D01*
X151195952Y-98571267D01*
X151031790Y-98624607D01*
X150861305Y-98651609D01*
X150688695Y-98651609D01*
X150518210Y-98624607D01*
X150354048Y-98571267D01*
X150200252Y-98492904D01*
X150060607Y-98391447D01*
X149938553Y-98269393D01*
X149837096Y-98129748D01*
X149758733Y-97975952D01*
X149705393Y-97811790D01*
X149678391Y-97641305D01*
X149678391Y-97468695D01*
X149705393Y-97298210D01*
X149758733Y-97134048D01*
X149837096Y-96980252D01*
X149938553Y-96840607D01*
X150060607Y-96718553D01*
X150200252Y-96617096D01*
X150354048Y-96538733D01*
X150518210Y-96485393D01*
X150688695Y-96458391D01*
X150861305Y-96458391D01*
X151031790Y-96485393D01*
G37*
G36*
X95951789Y-94584705D02*
G01*
X96090476Y-94621866D01*
X96214819Y-94693656D01*
X96316344Y-94795181D01*
X96388134Y-94919524D01*
X96425295Y-95058211D01*
X96425295Y-95201789D01*
X96388134Y-95340476D01*
X96316344Y-95464819D01*
X96214819Y-95566344D01*
X96090476Y-95638134D01*
X95951789Y-95675295D01*
X95880000Y-95680000D01*
X95878449Y-95680000D01*
X95081551Y-95680000D01*
X95080000Y-95680000D01*
X95008211Y-95675295D01*
X94869524Y-95638134D01*
X94745181Y-95566344D01*
X94643656Y-95464819D01*
X94571866Y-95340476D01*
X94534705Y-95201789D01*
X94534705Y-95058211D01*
X94571866Y-94919524D01*
X94643656Y-94795181D01*
X94745181Y-94693656D01*
X94869524Y-94621866D01*
X95008211Y-94584705D01*
X95080000Y-94580000D01*
X95880000Y-94580000D01*
X95951789Y-94584705D01*
G37*
G36*
X100271789Y-94584705D02*
G01*
X100410476Y-94621866D01*
X100534819Y-94693656D01*
X100636344Y-94795181D01*
X100708134Y-94919524D01*
X100745295Y-95058211D01*
X100745295Y-95201789D01*
X100708134Y-95340476D01*
X100636344Y-95464819D01*
X100534819Y-95566344D01*
X100410476Y-95638134D01*
X100271789Y-95675295D01*
X100200000Y-95680000D01*
X100198449Y-95680000D01*
X99101551Y-95680000D01*
X99100000Y-95680000D01*
X99028211Y-95675295D01*
X98889524Y-95638134D01*
X98765181Y-95566344D01*
X98663656Y-95464819D01*
X98591866Y-95340476D01*
X98554705Y-95201789D01*
X98554705Y-95058211D01*
X98591866Y-94919524D01*
X98663656Y-94795181D01*
X98765181Y-94693656D01*
X98889524Y-94621866D01*
X99028211Y-94584705D01*
X99100000Y-94580000D01*
X100200000Y-94580000D01*
X100271789Y-94584705D01*
G37*
G36*
X151031790Y-92285393D02*
G01*
X151195952Y-92338733D01*
X151349748Y-92417096D01*
X151489393Y-92518553D01*
X151611447Y-92640607D01*
X151712904Y-92780252D01*
X151791267Y-92934048D01*
X151844607Y-93098210D01*
X151871609Y-93268695D01*
X151871609Y-93441305D01*
X151844607Y-93611790D01*
X151791267Y-93775952D01*
X151712904Y-93929748D01*
X151611447Y-94069393D01*
X151489393Y-94191447D01*
X151349748Y-94292904D01*
X151195952Y-94371267D01*
X151031790Y-94424607D01*
X150861305Y-94451609D01*
X150688695Y-94451609D01*
X150518210Y-94424607D01*
X150354048Y-94371267D01*
X150200252Y-94292904D01*
X150060607Y-94191447D01*
X149938553Y-94069393D01*
X149837096Y-93929748D01*
X149758733Y-93775952D01*
X149705393Y-93611790D01*
X149678391Y-93441305D01*
X149678391Y-93268695D01*
X149705393Y-93098210D01*
X149758733Y-92934048D01*
X149837096Y-92780252D01*
X149938553Y-92640607D01*
X150060607Y-92518553D01*
X150200252Y-92417096D01*
X150354048Y-92338733D01*
X150518210Y-92285393D01*
X150688695Y-92258391D01*
X150861305Y-92258391D01*
X151031790Y-92285393D01*
G37*
G36*
X151968935Y-85055086D02*
G01*
X151979458Y-85055086D01*
X152031278Y-85063293D01*
X152171877Y-85081804D01*
X152206184Y-85090996D01*
X152235185Y-85095590D01*
X152290960Y-85113712D01*
X152380348Y-85137664D01*
X152437379Y-85161286D01*
X152481428Y-85175599D01*
X152522690Y-85196623D01*
X152579729Y-85220249D01*
X152659887Y-85266528D01*
X152712123Y-85293144D01*
X152735870Y-85310397D01*
X152766634Y-85328159D01*
X152879157Y-85414501D01*
X152921589Y-85445330D01*
X152929027Y-85452768D01*
X152937851Y-85459539D01*
X153090460Y-85612148D01*
X153097230Y-85620971D01*
X153104670Y-85628411D01*
X153135502Y-85670848D01*
X153221840Y-85783365D01*
X153239600Y-85814126D01*
X153256856Y-85837877D01*
X153283474Y-85890118D01*
X153329750Y-85970270D01*
X153353373Y-86027303D01*
X153374401Y-86068572D01*
X153388715Y-86112627D01*
X153412335Y-86169651D01*
X153436283Y-86259026D01*
X153454410Y-86314815D01*
X153459004Y-86343822D01*
X153468195Y-86378122D01*
X153486704Y-86518710D01*
X153494914Y-86570542D01*
X153494914Y-86581065D01*
X153496366Y-86592094D01*
X153496366Y-86807905D01*
X153494914Y-86818933D01*
X153494914Y-86829458D01*
X153486703Y-86881294D01*
X153468195Y-87021877D01*
X153459004Y-87056174D01*
X153454410Y-87085185D01*
X153436281Y-87140978D01*
X153412335Y-87230348D01*
X153388716Y-87287367D01*
X153374401Y-87331428D01*
X153353371Y-87372700D01*
X153329750Y-87429729D01*
X153283478Y-87509872D01*
X153256856Y-87562123D01*
X153239597Y-87585877D01*
X153221840Y-87616634D01*
X153135516Y-87729133D01*
X153104670Y-87771589D01*
X153097227Y-87779031D01*
X153090460Y-87787851D01*
X152937851Y-87940460D01*
X152929031Y-87947227D01*
X152921589Y-87954670D01*
X152879133Y-87985516D01*
X152766634Y-88071840D01*
X152735877Y-88089597D01*
X152712123Y-88106856D01*
X152659872Y-88133478D01*
X152579729Y-88179750D01*
X152522700Y-88203371D01*
X152481428Y-88224401D01*
X152437367Y-88238716D01*
X152380348Y-88262335D01*
X152290978Y-88286281D01*
X152235185Y-88304410D01*
X152206174Y-88309004D01*
X152171877Y-88318195D01*
X152031291Y-88336704D01*
X151979458Y-88344914D01*
X151968935Y-88344914D01*
X151957906Y-88346366D01*
X151742094Y-88346366D01*
X151731065Y-88344914D01*
X151720542Y-88344914D01*
X151668710Y-88336704D01*
X151528122Y-88318195D01*
X151493822Y-88309004D01*
X151464815Y-88304410D01*
X151409026Y-88286283D01*
X151319651Y-88262335D01*
X151262627Y-88238715D01*
X151218572Y-88224401D01*
X151177303Y-88203373D01*
X151120270Y-88179750D01*
X151040118Y-88133474D01*
X150987877Y-88106856D01*
X150964126Y-88089600D01*
X150933365Y-88071840D01*
X150820848Y-87985502D01*
X150778411Y-87954670D01*
X150770971Y-87947230D01*
X150762148Y-87940460D01*
X150609539Y-87787851D01*
X150602768Y-87779027D01*
X150595330Y-87771589D01*
X150564501Y-87729157D01*
X150478159Y-87616634D01*
X150460397Y-87585870D01*
X150443144Y-87562123D01*
X150416528Y-87509887D01*
X150370249Y-87429729D01*
X150346623Y-87372690D01*
X150325599Y-87331428D01*
X150311286Y-87287379D01*
X150287664Y-87230348D01*
X150263712Y-87140960D01*
X150245590Y-87085185D01*
X150240996Y-87056184D01*
X150231804Y-87021877D01*
X150213294Y-86881282D01*
X150205086Y-86829458D01*
X150205086Y-86818934D01*
X150203634Y-86807905D01*
X150203634Y-86592094D01*
X150205086Y-86581064D01*
X150205086Y-86570542D01*
X150213293Y-86518722D01*
X150231804Y-86378122D01*
X150240996Y-86343813D01*
X150245590Y-86314815D01*
X150263711Y-86259043D01*
X150287664Y-86169651D01*
X150311288Y-86112616D01*
X150325599Y-86068572D01*
X150346620Y-86027314D01*
X150370249Y-85970270D01*
X150416532Y-85890104D01*
X150443144Y-85837877D01*
X150460395Y-85814133D01*
X150478159Y-85783365D01*
X150564515Y-85670823D01*
X150595330Y-85628411D01*
X150602765Y-85620975D01*
X150609539Y-85612148D01*
X150762148Y-85459539D01*
X150770975Y-85452765D01*
X150778411Y-85445330D01*
X150820823Y-85414515D01*
X150933365Y-85328159D01*
X150964133Y-85310395D01*
X150987877Y-85293144D01*
X151040104Y-85266532D01*
X151120270Y-85220249D01*
X151177314Y-85196620D01*
X151218572Y-85175599D01*
X151262616Y-85161288D01*
X151319651Y-85137664D01*
X151409043Y-85113711D01*
X151464815Y-85095590D01*
X151493813Y-85090996D01*
X151528122Y-85081804D01*
X151668722Y-85063293D01*
X151720542Y-85055086D01*
X151731065Y-85055086D01*
X151742094Y-85053634D01*
X151957906Y-85053634D01*
X151968935Y-85055086D01*
G37*
G36*
X97018935Y-85005086D02*
G01*
X97029458Y-85005086D01*
X97081278Y-85013293D01*
X97221877Y-85031804D01*
X97256184Y-85040996D01*
X97285185Y-85045590D01*
X97340960Y-85063712D01*
X97430348Y-85087664D01*
X97487379Y-85111286D01*
X97531428Y-85125599D01*
X97572690Y-85146623D01*
X97629729Y-85170249D01*
X97709887Y-85216528D01*
X97762123Y-85243144D01*
X97785870Y-85260397D01*
X97816634Y-85278159D01*
X97929157Y-85364501D01*
X97971589Y-85395330D01*
X97979027Y-85402768D01*
X97987851Y-85409539D01*
X98140460Y-85562148D01*
X98147230Y-85570971D01*
X98154670Y-85578411D01*
X98185502Y-85620848D01*
X98271840Y-85733365D01*
X98289600Y-85764126D01*
X98306856Y-85787877D01*
X98333474Y-85840118D01*
X98379750Y-85920270D01*
X98403373Y-85977303D01*
X98424401Y-86018572D01*
X98438715Y-86062627D01*
X98462335Y-86119651D01*
X98486283Y-86209026D01*
X98504410Y-86264815D01*
X98509004Y-86293822D01*
X98518195Y-86328122D01*
X98536704Y-86468710D01*
X98544914Y-86520542D01*
X98544914Y-86531065D01*
X98546366Y-86542094D01*
X98546366Y-86757905D01*
X98544914Y-86768933D01*
X98544914Y-86779458D01*
X98536703Y-86831294D01*
X98518195Y-86971877D01*
X98509004Y-87006174D01*
X98504410Y-87035185D01*
X98486281Y-87090978D01*
X98462335Y-87180348D01*
X98438716Y-87237367D01*
X98424401Y-87281428D01*
X98403371Y-87322700D01*
X98379750Y-87379729D01*
X98333478Y-87459872D01*
X98306856Y-87512123D01*
X98289597Y-87535877D01*
X98271840Y-87566634D01*
X98185516Y-87679133D01*
X98154670Y-87721589D01*
X98147227Y-87729031D01*
X98140460Y-87737851D01*
X97987851Y-87890460D01*
X97979031Y-87897227D01*
X97971589Y-87904670D01*
X97929133Y-87935516D01*
X97816634Y-88021840D01*
X97785877Y-88039597D01*
X97762123Y-88056856D01*
X97709872Y-88083478D01*
X97629729Y-88129750D01*
X97572700Y-88153371D01*
X97531428Y-88174401D01*
X97487367Y-88188716D01*
X97430348Y-88212335D01*
X97340978Y-88236281D01*
X97285185Y-88254410D01*
X97256174Y-88259004D01*
X97221877Y-88268195D01*
X97081291Y-88286704D01*
X97029458Y-88294914D01*
X97018935Y-88294914D01*
X97007906Y-88296366D01*
X96792094Y-88296366D01*
X96781065Y-88294914D01*
X96770542Y-88294914D01*
X96718710Y-88286704D01*
X96578122Y-88268195D01*
X96543822Y-88259004D01*
X96514815Y-88254410D01*
X96459026Y-88236283D01*
X96369651Y-88212335D01*
X96312627Y-88188715D01*
X96268572Y-88174401D01*
X96227303Y-88153373D01*
X96170270Y-88129750D01*
X96090118Y-88083474D01*
X96037877Y-88056856D01*
X96014126Y-88039600D01*
X95983365Y-88021840D01*
X95870848Y-87935502D01*
X95828411Y-87904670D01*
X95820971Y-87897230D01*
X95812148Y-87890460D01*
X95659539Y-87737851D01*
X95652768Y-87729027D01*
X95645330Y-87721589D01*
X95614501Y-87679157D01*
X95528159Y-87566634D01*
X95510397Y-87535870D01*
X95493144Y-87512123D01*
X95466528Y-87459887D01*
X95420249Y-87379729D01*
X95396623Y-87322690D01*
X95375599Y-87281428D01*
X95361286Y-87237379D01*
X95337664Y-87180348D01*
X95313712Y-87090960D01*
X95295590Y-87035185D01*
X95290996Y-87006184D01*
X95281804Y-86971877D01*
X95263294Y-86831282D01*
X95255086Y-86779458D01*
X95255086Y-86768934D01*
X95253634Y-86757905D01*
X95253634Y-86542094D01*
X95255086Y-86531064D01*
X95255086Y-86520542D01*
X95263293Y-86468722D01*
X95281804Y-86328122D01*
X95290996Y-86293813D01*
X95295590Y-86264815D01*
X95313711Y-86209043D01*
X95337664Y-86119651D01*
X95361288Y-86062616D01*
X95375599Y-86018572D01*
X95396620Y-85977314D01*
X95420249Y-85920270D01*
X95466532Y-85840104D01*
X95493144Y-85787877D01*
X95510395Y-85764133D01*
X95528159Y-85733365D01*
X95614515Y-85620823D01*
X95645330Y-85578411D01*
X95652765Y-85570975D01*
X95659539Y-85562148D01*
X95812148Y-85409539D01*
X95820975Y-85402765D01*
X95828411Y-85395330D01*
X95870823Y-85364515D01*
X95983365Y-85278159D01*
X96014133Y-85260395D01*
X96037877Y-85243144D01*
X96090104Y-85216532D01*
X96170270Y-85170249D01*
X96227314Y-85146620D01*
X96268572Y-85125599D01*
X96312616Y-85111288D01*
X96369651Y-85087664D01*
X96459043Y-85063711D01*
X96514815Y-85045590D01*
X96543813Y-85040996D01*
X96578122Y-85031804D01*
X96718722Y-85013293D01*
X96770542Y-85005086D01*
X96781065Y-85005086D01*
X96792094Y-85003634D01*
X97007906Y-85003634D01*
X97018935Y-85005086D01*
G37*
M02*
